<svg xmlns="http://www.w3.org/2000/svg" viewBox="0 0 560 220" role="img" aria-label="Update Card"><defs><linearGradient id="g" x1="0" y1="0" x2="1" y2="1"><stop stop-color="#B21D35"/><stop offset=".48" stop-color="#7B0B4B"/><stop offset="1" stop-color="#102B82"/></linearGradient></defs><g id="icon"><path fill="url(#g)" d="M455 24c43 0 78 35 78 78v16c0 43-35 78-78 78h-47c-43 0-78-35-78-78v-16c0-43 35-78 78-78h47Zm-47 34c-24 0-44 20-44 44v16c0 24 20 44 44 44h47c24 0 44-20 44-44v-16c0-24-20-44-44-44h-47Z"/><path fill="#173B8F" d="M419 82h81v22h-81z"/><path fill="#1F83B6" d="M403 112h97v16h-97z"/><path fill="#1F83B6" d="M419 136h81v10h-81z"/><path fill="#A91535" d="M304 41h21v114c0 23-19 41-41 41h-31c-23 0-41-18-41-41V41h34v114c0 4 3 7 7 7h31c4 0 7-3 7-7V41h34Z"/></g><g fill="#303845" font-family="DejaVu Sans, sans-serif" font-weight="700" font-size="45" letter-spacing="2"><text x="28" y="100">UPDATE</text><text x="28" y="158">CARD</text></g><rect x="28" y="172" width="105" height="8" rx="4" fill="#1F83B6"/></svg>
